<?xml version="1.0" encoding="UTF-8"?> <svg xmlns="http://www.w3.org/2000/svg" width="1187" height="1218" viewBox="0 0 1187 1218" fill="none"><path d="M793.013 576.631V495.121L723.403 454.779L722.433 454.244L666.356 486.362V447.869L595.872 407.09L526.504 447.139L525.534 447.723V486.654L469.749 454.633L468.778 454.098L399.798 494.44L398.828 495.024V576.485L454.565 608.944L399.798 640.866L398.828 641.402V722.231L467.808 763.254L468.778 763.838L524.806 731.526V770.456L594.465 810.165L595.435 810.7L665.337 770.991L666.356 770.456V731.526L722.53 763.838L792.092 722.815L793.062 722.231V641.791L737.082 609.333L792.092 577.459L793.013 576.631ZM673.729 572.446L778.412 512.007V568.213L722.433 600.671L673.729 572.446ZM659.176 563.979L633.224 548.893L666.404 529.672V503.248L722.481 471.179L770.99 499.355L659.176 563.979ZM659.176 580.865L771.233 645.781L722.723 673.957L610.474 608.554L659.176 580.865ZM540.329 521.204V464.755L588.838 492.834V549.331L540.329 521.204ZM603.391 549.283V492.834L651.9 464.755V521.204L603.391 549.283ZM573.073 557.117L595.048 569.867L596.017 570.451L618.72 557.312L644.575 572.349L595.678 600.038L547.169 572.349L573.073 557.117ZM547.654 452.103L596.163 424.024L644.672 452.103L596.163 480.133L547.654 452.103ZM588.353 621.207V678.24L476.394 742.815V686.707L588.353 621.207ZM413.72 568.213V512.056L517.772 572.446L469.263 600.622L413.72 568.213ZM558.52 548.748L532.373 564.028L420.802 499.452L468.972 471.276L525.631 503.783V529.866L558.52 548.748ZM581.028 608.652L469.069 674.055L420.899 645.879L532.471 580.962L581.028 608.652ZM461.744 686.804V742.718L413.72 714.153V658.531L461.744 686.804ZM588.353 695.223V789.97L539.844 762.232V723.301L588.353 695.223ZM715.253 686.804V742.961L603.003 678.288V621.207L715.253 686.804ZM651.949 762.232L603.003 790.018V695.32L651.852 723.448L651.949 762.232ZM778.557 658.58V714.153L730.048 742.815V686.707L778.557 658.58Z" fill="#0CC2FF"></path></svg> 