<svg width="87" height="50" viewBox="0 0 87 50" fill="none" xmlns="http://www.w3.org/2000/svg">
<path d="M5.13636 46H1.01136V34.3636H5.17045C6.34091 34.3636 7.34848 34.5966 8.19318 35.0625C9.03788 35.5246 9.6875 36.1894 10.142 37.0568C10.6004 37.9242 10.8295 38.9621 10.8295 40.1705C10.8295 41.3826 10.6004 42.4242 10.142 43.2955C9.6875 44.1667 9.03409 44.8352 8.18182 45.3011C7.33333 45.767 6.31818 46 5.13636 46ZM3.47159 43.892H5.03409C5.76136 43.892 6.37311 43.7633 6.86932 43.5057C7.36932 43.2443 7.74432 42.8409 7.99432 42.2955C8.24811 41.7462 8.375 41.0379 8.375 40.1705C8.375 39.3106 8.24811 38.608 7.99432 38.0625C7.74432 37.517 7.37121 37.1155 6.875 36.858C6.37879 36.6004 5.76705 36.4716 5.03977 36.4716H3.47159V43.892ZM16.3551 46V34.3636H24.0597V36.392H18.8153V39.1648H23.5483V41.1932H18.8153V46H16.3551ZM31.8778 34.3636V46H29.4176V34.3636H31.8778ZM47.3381 34.3636V46H45.2131L40.1506 38.6761H40.0653V46H37.6051V34.3636H39.7642L44.7869 41.6818H44.8892V34.3636H47.3381ZM55.5341 34.3636V46H53.0739V34.3636H55.5341ZM60.8182 36.392V34.3636H70.375V36.392H66.8125V46H64.3807V36.392H60.8182ZM74.9702 34.3636H77.7259L80.3793 39.375H80.4929L83.1463 34.3636H85.902L81.6577 41.8864V46H79.2145V41.8864L74.9702 34.3636Z" fill="white"/>
<g clip-path="url(#clip0_4_130)">
<path d="M55.8484 0C53.0613 0 50.0095 1.51895 46.7904 4.51505C45.2715 5.92252 43.9337 7.45541 42.9582 8.66778C42.9582 8.66778 44.5189 10.4654 46.233 12.4025C47.1667 11.2319 48.4905 9.64326 50.0373 8.20792C52.8941 5.53233 54.7614 4.98885 55.8344 4.98885C59.8478 4.98885 63.1087 8.3612 63.1087 12.5279C63.1087 16.6527 59.8478 20.0251 55.8344 20.0669C55.6394 20.0669 55.4164 20.039 55.1377 19.9833C56.3082 20.5268 57.5764 20.9169 58.7609 20.9169C66.1187 20.9169 67.568 15.8305 67.6516 15.4682C67.8606 14.5346 67.9861 13.5591 67.9861 12.5557C67.9721 5.62988 62.5373 0 55.8484 0Z" fill="url(#paint0_linear_4_130)"/>
<path d="M30.1377 25.0557C32.9247 25.0557 35.9766 23.5368 39.1957 20.5407C40.7146 19.1332 42.0524 17.6003 43.0279 16.388C43.0279 16.388 41.4671 14.5903 39.7531 12.6533C38.8194 13.8239 37.4955 15.4125 35.9487 16.8478C33.092 19.4955 31.2107 20.0669 30.1516 20.0669C26.1382 20.0669 22.8774 16.6945 22.8774 12.5279C22.8774 8.40301 26.1382 5.03065 30.1516 4.98885C30.3467 4.98885 30.5697 5.01672 30.8484 5.07246C29.6778 4.52898 28.4097 4.13879 27.2252 4.13879C19.8673 4.12486 18.4181 9.21126 18.3344 9.58751C18.1254 10.5212 18 11.4967 18 12.5C18 19.4259 23.4348 25.0557 30.1377 25.0557Z" fill="url(#paint1_linear_4_130)"/>
<path fill-rule="evenodd" clip-rule="evenodd" d="M35.7397 8.3194C34.9314 7.53902 31.0017 4.34783 27.2391 4.23634C20.5223 4.06912 18.5574 8.94649 18.3763 9.57358C19.6722 4.11093 24.466 0.0278707 30.1516 0C34.7921 0 39.4883 4.55686 42.9582 8.66778L42.9721 8.65385C42.9721 8.65385 44.5329 10.4515 46.2469 12.3885C46.2469 12.3885 48.1979 14.6878 50.2603 16.7085C51.0686 17.4889 54.9844 20.6382 58.7469 20.7497C65.6449 20.9448 67.5541 15.7887 67.6516 15.3986C66.3835 20.903 61.5758 25 55.8623 25.0279C51.2218 25.0279 46.5256 20.471 43.0418 16.3601C43.0418 16.374 43.0279 16.374 43.0279 16.388C43.0279 16.388 41.4671 14.5903 39.7531 12.6533C39.767 12.6533 37.8161 10.34 35.7397 8.3194Z" fill="#29ABE2"/>
</g>
<defs>
<linearGradient id="paint0_linear_4_130" x1="49.3246" y1="1.98528" x2="66.5042" y2="19.3063" gradientUnits="userSpaceOnUse">
<stop offset="0.21" stop-color="#F15A24"/>
<stop offset="0.6841" stop-color="#FBB03B"/>
</linearGradient>
<linearGradient id="paint1_linear_4_130" x1="36.6658" y1="23.0733" x2="19.4862" y2="5.7523" gradientUnits="userSpaceOnUse">
<stop offset="0.21" stop-color="#ED1E79"/>
<stop offset="0.8929" stop-color="#522785"/>
</linearGradient>
<clipPath id="clip0_4_130">
<rect width="50" height="25.0557" fill="white" transform="translate(18)"/>
</clipPath>
</defs>
</svg>
